<?xml version="1.0" encoding="UTF-8"?>
<svg width="30px" height="30px" viewBox="0 0 30 30" version="1.1" xmlns="http://www.w3.org/2000/svg" xmlns:xlink="http://www.w3.org/1999/xlink">
    <!-- Generator: Sketch 46.2 (44496) - http://www.bohemiancoding.com/sketch -->
    <title>admin</title>
    <desc>Created with Sketch.</desc>
    <defs></defs>
    <g id="Symbols" stroke="none" stroke-width="1" fill="none" fill-rule="evenodd">
        <g id="admin">
            <g>
                <rect id="Rectangle-19" x="0" y="0" width="30" height="30"></rect>
                <path d="M15,8.89473684 C14.2151743,8.89473684 13.5789474,9.53096378 13.5789474,10.3157895 L13.5789474,13.1578947 C13.5789474,13.9427204 14.2151743,14.5789474 15,14.5789474 C15.7848257,14.5789474 16.4210526,13.9427204 16.4210526,13.1578947 L16.4210526,10.3157895 C16.4210526,9.53096378 15.7848257,8.89473684 15,8.89473684 Z M15,7 C16.83126,7 18.3157895,8.48452951 18.3157895,10.3157895 L18.3157895,13.1578947 C18.3157895,14.9891547 16.83126,16.4736842 15,16.4736842 C13.16874,16.4736842 11.6842105,14.9891547 11.6842105,13.1578947 L11.6842105,10.3157895 C11.6842105,8.48452951 13.16874,7 15,7 Z" id="Rectangle-20" fill="#FFFFFF" fill-rule="nonzero"></path>
                <path d="M7.89473684,23.1052632 L22.1052632,23.1052632 L22.1052632,20.2631579 C22.1052632,19.7399408 21.6811119,19.3157895 21.1578947,19.3157895 L8.84210526,19.3157895 C8.31888813,19.3157895 7.89473684,19.7399408 7.89473684,20.2631579 L7.89473684,23.1052632 Z M8.84210526,17.4210526 L21.1578947,17.4210526 C22.7275461,17.4210526 24,18.6935065 24,20.2631579 L24,25 L6,25 L6,20.2631579 C6,18.6935065 7.27245387,17.4210526 8.84210526,17.4210526 Z" id="Rectangle-21" fill="#FFFFFF" fill-rule="nonzero"></path>
            </g>
        </g>
    </g>
</svg>