<?xml version="1.0" encoding="iso-8859-1"?>
<!-- Generator: Adobe Illustrator 19.0.0, SVG Export Plug-In . SVG Version: 6.00 Build 0)  -->
<svg version="1.1" id="&#x56FE;&#x5C42;_1" xmlns="http://www.w3.org/2000/svg" xmlns:xlink="http://www.w3.org/1999/xlink" x="0px"
	 y="0px" viewBox="-2 5 8 8" style="enable-background:new -2 5 8 8;" xml:space="preserve">
<path id="Combined-Shape" style="fill:#243546;" d="M2,8.357l-2.893-2.893l0,0c-0.178-0.178-0.465-0.178-0.643,0
	s-0.178,0.465,0,0.643l0,0L1.357,9l-2.893,2.893l0,0c-0.178,0.178-0.178,0.465,0,0.643s0.465,0.178,0.643,0L2,9.643l2.893,2.893l0,0
	c0.178,0.178,0.465,0.178,0.643,0l0,0c0.178-0.178,0.178-0.465,0-0.643L2.643,9l2.893-2.893l0,0c0.178-0.178,0.178-0.465,0-0.643
	s-0.465-0.178-0.643,0l0,0L2,8.357z"/>
</svg>
