<?xml version="1.0" encoding="iso-8859-1"?>
<!-- Generator: Adobe Illustrator 19.0.0, SVG Export Plug-In . SVG Version: 6.00 Build 0)  -->
<svg version="1.1" id="&#x56FE;&#x5C42;_1" xmlns="http://www.w3.org/2000/svg" xmlns:xlink="http://www.w3.org/1999/xlink" x="0px"
	 y="0px" viewBox="1 1 15 15" style="enable-background:new 1 1 15 15;" xml:space="preserve">
<path id="Combined-Shape" style="fill:#9AABB8;" d="M8.5,15c3.59,0,6.5-2.91,6.5-6.5S12.09,2,8.5,2S2,4.91,2,8.5S4.91,15,8.5,15z
	 M9.328,8.621l1.768-1.768c0.195-0.195,0.195-0.512,0-0.707c-0.195-0.195-0.512-0.195-0.707,0L8.621,7.914L6.854,6.146
	c-0.195-0.195-0.512-0.195-0.707,0c-0.195,0.195-0.195,0.512,0,0.707l1.768,1.768l-1.768,1.768c-0.195,0.195-0.195,0.512,0,0.707
	c0.195,0.195,0.512,0.195,0.707,0l1.768-1.768l1.768,1.768c0.195,0.195,0.512,0.195,0.707,0s0.195-0.512,0-0.707L9.328,8.621z
	 M8.5,16C4.358,16,1,12.642,1,8.5S4.358,1,8.5,1S16,4.358,16,8.5S12.642,16,8.5,16z"/>
</svg>
