<?xml version="1.0" encoding="UTF-8"?>
<svg width="30px" height="30px" viewBox="0 0 30 30" version="1.1" xmlns="http://www.w3.org/2000/svg" xmlns:xlink="http://www.w3.org/1999/xlink">
    <!-- Generator: Sketch 46.2 (44496) - http://www.bohemiancoding.com/sketch -->
    <title>消息</title>
    <desc>Created with Sketch.</desc>
    <defs></defs>
    <g id="Symbols" stroke="none" stroke-width="1" fill="none" fill-rule="evenodd">
        <g id="消息">
            <g>
                <rect id="Rectangle-19" x="0" y="0" width="30" height="30"></rect>
                <path d="M13,21 L17,21 L17,23 L17,23 C17,24.1045695 16.1045695,25 15,25 L15,25 L15,25 C13.8954305,25 13,24.1045695 13,23 L13,21 Z" id="Rectangle-24" fill="#FFFFFF"></path>
                <path d="M10,21.8192139 L20,21.8192139 L20,12.1349599 C20,11.0303904 19.1045695,10.1349599 18,10.1349599 L15.926669,10.1349599 L15.9977309,9.06847548 C15.99924,9.04582728 16,9.02299829 16,9 C16,8.44771525 15.5522847,8 15,8 C14.4477153,8 14,8.44771525 14,9 C14,9.02299829 14.00076,9.04582728 14.0022691,9.06847548 L14.073331,10.1349599 L12,10.1349599 C10.8954305,10.1349599 10,11.0303904 10,12.1349599 L10,21.8192139 Z" id="Combined-Shape" stroke="#FFFFFF" stroke-width="2"></path>
                <rect id="Rectangle-23" stroke="#FFFFFF" stroke-width="2" x="7" y="22" width="16" height="1" rx="0.5"></rect>
            </g>
        </g>
    </g>
</svg>